<svg xmlns="http://www.w3.org/2000/svg" viewBox="0 0 360 400" fill="none">
<line x1="116.6" y1="60.3" x2="51.9" y2="47.1" stroke="#fff" stroke-width="1" stroke-opacity=".55"/>
<line x1="116.6" y1="60.3" x2="163.1" y2="119.9" stroke="#fff" stroke-width="1" stroke-opacity=".55"/>
<line x1="116.6" y1="60.3" x2="44.6" y2="89.3" stroke="#fff" stroke-width="1" stroke-opacity=".55"/>
<line x1="234.3" y1="29.0" x2="197.2" y2="25.1" stroke="#fff" stroke-width="1" stroke-opacity=".55"/>
<line x1="234.3" y1="29.0" x2="262.6" y2="115.2" stroke="#fff" stroke-width="1" stroke-opacity=".55"/>
<line x1="234.3" y1="29.0" x2="309.0" y2="115.8" stroke="#fff" stroke-width="1" stroke-opacity=".55"/>
<line x1="192.9" y1="146.3" x2="207.8" y2="158.7" stroke="#fff" stroke-width="1" stroke-opacity=".55"/>
<line x1="192.9" y1="146.3" x2="230.0" y2="149.0" stroke="#fff" stroke-width="1" stroke-opacity=".55"/>
<line x1="192.9" y1="146.3" x2="163.1" y2="119.9" stroke="#fff" stroke-width="1" stroke-opacity=".55"/>
<line x1="20.9" y1="203.0" x2="13.5" y2="173.5" stroke="#fff" stroke-width="1" stroke-opacity=".55"/>
<line x1="20.9" y1="203.0" x2="65.1" y2="232.6" stroke="#fff" stroke-width="1" stroke-opacity=".55"/>
<line x1="20.9" y1="203.0" x2="87.9" y2="229.8" stroke="#fff" stroke-width="1" stroke-opacity=".55"/>
<line x1="13.5" y1="173.5" x2="20.9" y2="203.0" stroke="#fff" stroke-width="1" stroke-opacity=".55"/>
<line x1="13.5" y1="173.5" x2="65.1" y2="232.6" stroke="#fff" stroke-width="1" stroke-opacity=".55"/>
<line x1="13.5" y1="173.5" x2="44.6" y2="89.3" stroke="#fff" stroke-width="1" stroke-opacity=".55"/>
<line x1="25.1" y1="36.3" x2="51.9" y2="47.1" stroke="#fff" stroke-width="1" stroke-opacity=".55"/>
<line x1="25.1" y1="36.3" x2="21.5" y2="82.4" stroke="#fff" stroke-width="1" stroke-opacity=".55"/>
<line x1="25.1" y1="36.3" x2="44.6" y2="89.3" stroke="#fff" stroke-width="1" stroke-opacity=".55"/>
<line x1="152.8" y1="330.7" x2="189.1" y2="350.1" stroke="#fff" stroke-width="1" stroke-opacity=".55"/>
<line x1="152.8" y1="330.7" x2="111.1" y2="326.5" stroke="#fff" stroke-width="1" stroke-opacity=".55"/>
<line x1="152.8" y1="330.7" x2="225.9" y2="379.1" stroke="#fff" stroke-width="1" stroke-opacity=".55"/>
<line x1="44.6" y1="89.3" x2="21.5" y2="82.4" stroke="#fff" stroke-width="1" stroke-opacity=".55"/>
<line x1="44.6" y1="89.3" x2="51.9" y2="47.1" stroke="#fff" stroke-width="1" stroke-opacity=".55"/>
<line x1="44.6" y1="89.3" x2="25.1" y2="36.3" stroke="#fff" stroke-width="1" stroke-opacity=".55"/>
<line x1="225.9" y1="379.1" x2="189.1" y2="350.1" stroke="#fff" stroke-width="1" stroke-opacity=".55"/>
<line x1="225.9" y1="379.1" x2="152.8" y2="330.7" stroke="#fff" stroke-width="1" stroke-opacity=".55"/>
<line x1="225.9" y1="379.1" x2="286.0" y2="279.6" stroke="#fff" stroke-width="1" stroke-opacity=".55"/>
<line x1="207.8" y1="158.7" x2="192.9" y2="146.3" stroke="#fff" stroke-width="1" stroke-opacity=".55"/>
<line x1="207.8" y1="158.7" x2="230.0" y2="149.0" stroke="#fff" stroke-width="1" stroke-opacity=".55"/>
<line x1="207.8" y1="158.7" x2="244.9" y2="171.0" stroke="#fff" stroke-width="1" stroke-opacity=".55"/>
<line x1="351.5" y1="18.6" x2="352.9" y2="47.2" stroke="#fff" stroke-width="1" stroke-opacity=".55"/>
<line x1="351.5" y1="18.6" x2="309.0" y2="115.8" stroke="#fff" stroke-width="1" stroke-opacity=".55"/>
<line x1="351.5" y1="18.6" x2="234.3" y2="29.0" stroke="#fff" stroke-width="1" stroke-opacity=".55"/>
<line x1="309.0" y1="115.8" x2="262.6" y2="115.2" stroke="#fff" stroke-width="1" stroke-opacity=".55"/>
<line x1="309.0" y1="115.8" x2="352.9" y2="47.2" stroke="#fff" stroke-width="1" stroke-opacity=".55"/>
<line x1="309.0" y1="115.8" x2="244.9" y2="171.0" stroke="#fff" stroke-width="1" stroke-opacity=".55"/>
<line x1="51.9" y1="47.1" x2="25.1" y2="36.3" stroke="#fff" stroke-width="1" stroke-opacity=".55"/>
<line x1="51.9" y1="47.1" x2="44.6" y2="89.3" stroke="#fff" stroke-width="1" stroke-opacity=".55"/>
<line x1="51.9" y1="47.1" x2="21.5" y2="82.4" stroke="#fff" stroke-width="1" stroke-opacity=".55"/>
<line x1="111.1" y1="326.5" x2="152.8" y2="330.7" stroke="#fff" stroke-width="1" stroke-opacity=".55"/>
<line x1="111.1" y1="326.5" x2="189.1" y2="350.1" stroke="#fff" stroke-width="1" stroke-opacity=".55"/>
<line x1="111.1" y1="326.5" x2="113.1" y2="234.2" stroke="#fff" stroke-width="1" stroke-opacity=".55"/>
<line x1="65.1" y1="232.6" x2="87.9" y2="229.8" stroke="#fff" stroke-width="1" stroke-opacity=".55"/>
<line x1="65.1" y1="232.6" x2="113.1" y2="234.2" stroke="#fff" stroke-width="1" stroke-opacity=".55"/>
<line x1="65.1" y1="232.6" x2="20.9" y2="203.0" stroke="#fff" stroke-width="1" stroke-opacity=".55"/>
<line x1="230.0" y1="149.0" x2="207.8" y2="158.7" stroke="#fff" stroke-width="1" stroke-opacity=".55"/>
<line x1="230.0" y1="149.0" x2="244.9" y2="171.0" stroke="#fff" stroke-width="1" stroke-opacity=".55"/>
<line x1="230.0" y1="149.0" x2="192.9" y2="146.3" stroke="#fff" stroke-width="1" stroke-opacity=".55"/>
<line x1="197.2" y1="25.1" x2="234.3" y2="29.0" stroke="#fff" stroke-width="1" stroke-opacity=".55"/>
<line x1="197.2" y1="25.1" x2="116.6" y2="60.3" stroke="#fff" stroke-width="1" stroke-opacity=".55"/>
<line x1="197.2" y1="25.1" x2="163.1" y2="119.9" stroke="#fff" stroke-width="1" stroke-opacity=".55"/>
<line x1="21.5" y1="82.4" x2="44.6" y2="89.3" stroke="#fff" stroke-width="1" stroke-opacity=".55"/>
<line x1="21.5" y1="82.4" x2="25.1" y2="36.3" stroke="#fff" stroke-width="1" stroke-opacity=".55"/>
<line x1="21.5" y1="82.4" x2="51.9" y2="47.1" stroke="#fff" stroke-width="1" stroke-opacity=".55"/>
<line x1="244.9" y1="171.0" x2="230.0" y2="149.0" stroke="#fff" stroke-width="1" stroke-opacity=".55"/>
<line x1="244.9" y1="171.0" x2="207.8" y2="158.7" stroke="#fff" stroke-width="1" stroke-opacity=".55"/>
<line x1="244.9" y1="171.0" x2="192.9" y2="146.3" stroke="#fff" stroke-width="1" stroke-opacity=".55"/>
<line x1="113.1" y1="234.2" x2="87.9" y2="229.8" stroke="#fff" stroke-width="1" stroke-opacity=".55"/>
<line x1="113.1" y1="234.2" x2="65.1" y2="232.6" stroke="#fff" stroke-width="1" stroke-opacity=".55"/>
<line x1="113.1" y1="234.2" x2="111.1" y2="326.5" stroke="#fff" stroke-width="1" stroke-opacity=".55"/>
<line x1="163.1" y1="119.9" x2="192.9" y2="146.3" stroke="#fff" stroke-width="1" stroke-opacity=".55"/>
<line x1="163.1" y1="119.9" x2="207.8" y2="158.7" stroke="#fff" stroke-width="1" stroke-opacity=".55"/>
<line x1="163.1" y1="119.9" x2="230.0" y2="149.0" stroke="#fff" stroke-width="1" stroke-opacity=".55"/>
<line x1="286.0" y1="279.6" x2="244.9" y2="171.0" stroke="#fff" stroke-width="1" stroke-opacity=".55"/>
<line x1="286.0" y1="279.6" x2="225.9" y2="379.1" stroke="#fff" stroke-width="1" stroke-opacity=".55"/>
<line x1="286.0" y1="279.6" x2="189.1" y2="350.1" stroke="#fff" stroke-width="1" stroke-opacity=".55"/>
<line x1="87.9" y1="229.8" x2="65.1" y2="232.6" stroke="#fff" stroke-width="1" stroke-opacity=".55"/>
<line x1="87.9" y1="229.8" x2="113.1" y2="234.2" stroke="#fff" stroke-width="1" stroke-opacity=".55"/>
<line x1="87.9" y1="229.8" x2="20.9" y2="203.0" stroke="#fff" stroke-width="1" stroke-opacity=".55"/>
<line x1="189.1" y1="350.1" x2="152.8" y2="330.7" stroke="#fff" stroke-width="1" stroke-opacity=".55"/>
<line x1="189.1" y1="350.1" x2="225.9" y2="379.1" stroke="#fff" stroke-width="1" stroke-opacity=".55"/>
<line x1="189.1" y1="350.1" x2="111.1" y2="326.5" stroke="#fff" stroke-width="1" stroke-opacity=".55"/>
<line x1="262.6" y1="115.2" x2="309.0" y2="115.8" stroke="#fff" stroke-width="1" stroke-opacity=".55"/>
<line x1="262.6" y1="115.2" x2="230.0" y2="149.0" stroke="#fff" stroke-width="1" stroke-opacity=".55"/>
<line x1="262.6" y1="115.2" x2="244.9" y2="171.0" stroke="#fff" stroke-width="1" stroke-opacity=".55"/>
<line x1="352.9" y1="47.2" x2="351.5" y2="18.6" stroke="#fff" stroke-width="1" stroke-opacity=".55"/>
<line x1="352.9" y1="47.2" x2="309.0" y2="115.8" stroke="#fff" stroke-width="1" stroke-opacity=".55"/>
<line x1="352.9" y1="47.2" x2="262.6" y2="115.2" stroke="#fff" stroke-width="1" stroke-opacity=".55"/>
<circle cx="116.6" cy="60.3" r="2" fill="#fff" fill-opacity=".7"/>
<circle cx="234.3" cy="29.0" r="2" fill="#fff" fill-opacity=".7"/>
<circle cx="192.9" cy="146.3" r="2" fill="#fff" fill-opacity=".7"/>
<circle cx="20.9" cy="203.0" r="2" fill="#fff" fill-opacity=".7"/>
<circle cx="13.5" cy="173.5" r="2" fill="#fff" fill-opacity=".7"/>
<circle cx="25.1" cy="36.3" r="2" fill="#fff" fill-opacity=".7"/>
<circle cx="152.8" cy="330.7" r="2" fill="#fff" fill-opacity=".7"/>
<circle cx="44.6" cy="89.3" r="2" fill="#fff" fill-opacity=".7"/>
<circle cx="225.9" cy="379.1" r="2" fill="#fff" fill-opacity=".7"/>
<circle cx="207.8" cy="158.7" r="2" fill="#fff" fill-opacity=".7"/>
<circle cx="351.5" cy="18.6" r="2" fill="#fff" fill-opacity=".7"/>
<circle cx="309.0" cy="115.8" r="2" fill="#fff" fill-opacity=".7"/>
<circle cx="51.9" cy="47.1" r="2" fill="#fff" fill-opacity=".7"/>
<circle cx="111.1" cy="326.5" r="2" fill="#fff" fill-opacity=".7"/>
<circle cx="65.1" cy="232.6" r="2" fill="#fff" fill-opacity=".7"/>
<circle cx="230.0" cy="149.0" r="2" fill="#fff" fill-opacity=".7"/>
<circle cx="197.2" cy="25.1" r="2" fill="#fff" fill-opacity=".7"/>
<circle cx="21.5" cy="82.4" r="2" fill="#fff" fill-opacity=".7"/>
<circle cx="244.9" cy="171.0" r="2" fill="#fff" fill-opacity=".7"/>
<circle cx="113.1" cy="234.2" r="2" fill="#fff" fill-opacity=".7"/>
<circle cx="163.1" cy="119.9" r="2" fill="#fff" fill-opacity=".7"/>
<circle cx="286.0" cy="279.6" r="2" fill="#fff" fill-opacity=".7"/>
<circle cx="87.9" cy="229.8" r="2" fill="#fff" fill-opacity=".7"/>
<circle cx="189.1" cy="350.1" r="2" fill="#fff" fill-opacity=".7"/>
<circle cx="262.6" cy="115.2" r="2" fill="#fff" fill-opacity=".7"/>
<circle cx="352.9" cy="47.2" r="2" fill="#fff" fill-opacity=".7"/>
</svg>